<?xml version="1.0" encoding="UTF-8"?>
<svg version="1.1" xmlns="http://www.w3.org/2000/svg" width="32" height="32">
<path d="M0 0 C-1.875 4.875 -1.875 4.875 -3 6 C-4.56172745 6.08685603 -6.12729344 6.10702219 -7.69140625 6.09765625 C-8.63564453 6.09443359 -9.57988281 6.09121094 -10.55273438 6.08789062 C-11.54595703 6.07951172 -12.53917969 6.07113281 -13.5625 6.0625 C-14.55958984 6.05798828 -15.55667969 6.05347656 -16.58398438 6.04882812 C-19.05604849 6.03700007 -21.52799518 6.02051849 -24 6 C-24 5.34 -24 4.68 -24 4 C-22.55367187 3.94392578 -22.55367187 3.94392578 -21.078125 3.88671875 C-19.81484375 3.82097656 -18.5515625 3.75523438 -17.25 3.6875 C-15.99703125 3.62949219 -14.7440625 3.57148438 -13.453125 3.51171875 C-7.95794779 2.69738819 -5.92266615 -0.40381815 0 0 Z " fill="#007BBA" transform="translate(24,17)"/>
<path d="M0 0 C-0.66 1.65 -1.32 3.3 -2 5 C-8.15234375 5.09765625 -8.15234375 5.09765625 -10 5 C-10.33 4.67 -10.66 4.34 -11 4 C-13.01594582 3.76572222 -15.038474 3.58663876 -17.0625 3.4375 C-18.16722656 3.35371094 -19.27195312 3.26992187 -20.41015625 3.18359375 C-21.26480469 3.12300781 -22.11945312 3.06242188 -23 3 C-22.67 2.34 -22.34 1.68 -22 1 C-19.12109375 0.5859375 -19.12109375 0.5859375 -15.4375 0.375 C-14.17550781 0.30152344 -12.91351563 0.22804688 -11.61328125 0.15234375 C-7.73062262 -0.01135753 -3.88460741 -0.07769215 0 0 Z " fill="#007BBA" transform="translate(28,11)"/>
<path d="M0 0 C6.93 0 13.86 0 21 0 C20.34 1.65 19.68 3.3 19 5 C16.69 5 14.38 5 12 5 C11.67 4.34 11.34 3.68 11 3 C8.41394668 2.5316735 8.41394668 2.5316735 5.4375 2.375 C3.91962891 2.26285156 3.91962891 2.26285156 2.37109375 2.1484375 C1.19740234 2.07496094 1.19740234 2.07496094 0 2 C0 1.34 0 0.68 0 0 Z " fill="#007BBA" transform="translate(11,4)"/>
</svg>
