<svg version="1.2" xmlns="http://www.w3.org/2000/svg" viewBox="0 0 1550 1020" width="1550" height="1020">
	<title>TRENT</title>
	<defs>
		<clipPath clipPathUnits="userSpaceOnUse" id="cp1">
			<path d="m-1459-367h4455v6299h-4455z"/>
		</clipPath>
	</defs>
	<style>
		.s0 { fill: #241f21 } 
	</style>
	<g id="Clip-Path: Page 1" clip-path="url(#cp1)">
		<g id="Page 1">
			<path id="Path 7" fill-rule="evenodd" class="s0" d="m299.1 681.5h22.9v129.8h40.9v21.6h-63.8zm174.8 0v151.4h-22.9v-151.4zm192.3 0v151.4h-22.9v-103.8l-21.4 103.8h-16l-21.4-103.8v103.8h-22.5v-151.4h32.4l19.9 96.7 19.1-96.7zm111 0v151.4h-22.9v-151.4zm88.1 0h73.1v21.6h-25.1v129.8h-22.9v-129.8h-25.1zm161.2 0h65.1v21.6h-42.2v42.2h33.5v21.6h-33.5v44.4h42.2v21.6h-65.1zm153.2 0h35.9q16.4 0 26.2 9.9 9.7 9.8 9.7 26.2v79.2q0 16.4-9.7 26.3-9.8 9.8-26.2 9.8h-35.9zm34.8 129.8q6.7 0 10.4-3.7 3.7-3.7 3.7-10.4v-80q0-6.7-3.7-10.4-3.7-3.7-10.4-3.7h-11.9v108.2zm-632.7-279c0 29.4 0.9 51 10.4 73.5h-96.9c-5.2-15.6-8.6-25.1-8.6-74.4v-110.7c0-56.3-16.5-74.4-59.7-74.4h-32.9v259.5h-95.1v-519.1h-103.5v519.1h-95.2v-519.1h-99.4v-86.5h439.1c98.6 0 141 45.9 141 139.3v37.2c0 62.3-19.9 102.1-62.3 119.4v1.7c47.6 14.7 63.1 59.7 63.1 128.1zm-96-383.3c0-43.3-14.7-62.3-48.4-62.3h-43.3v173h34.6c35.5 0 57.1-15.5 57.1-64zm157.5-148.8h259.5v86.5h-164.4v160.1h130.7v86.5h-130.7v186h164.4v86.5h-259.5zm906.3 0v86.5h-99.4v519.1h-95.2v-519.1h-102.7v519.1h-97.7l-114.2-442.1h-1.8v442.1h-84.7v-605.6h119.3l92.6 362.5h1.7v-362.5zm-1159.3 934.1h-24.2v61.7h-35.1v-61.7h-25v-25.7h84.3zm61-25.6l33.9 87.3h-34.2l-18-52-17.7 52h-33.8l33.1-87.3zm110.2 25.6h-24.2v61.7h-35.1v-61.7h-25v-25.6h84.3zm94.9 61.7h-34.2l-18-52.1-17.7 52.1h-33.8l33.1-87.4h36.7z"/>
			<path id="Path 8" fill-rule="evenodd" class="s0" d="m276.5 995.3h-21.1l-8.4-19.6h-38.5l-8 19.6h-20.5l37.5-86.1h20.5zm-35.7-34l-13.3-32-13 32zm457.7 34.5v-87.2h68.6v14.7h-49.9v19.4h46.4v14.7h-46.4v23.7h51.6v14.7zm147.4 0h-17.7v-32.2c0-6.9-0.4-11.2-1.1-13.3-0.7-1.9-2-3.6-3.7-4.7-1.9-1.1-4-1.7-6.2-1.6-2.9-0.1-5.8 0.8-8.3 2.3-2.3 1.5-4.1 3.8-5 6.4-0.9 2.6-1.4 7.5-1.4 14.5v28.6h-17.7v-63.2h16.5v9.3c5.2-6.9 13.5-10.9 22.1-10.7 3.7-0.1 7.3 0.6 10.7 2 2.8 1 5.4 2.8 7.4 5.1 1.6 2.1 2.8 4.5 3.5 7q1.1 5.6 0.9 11.3zm54.2-63.3v13.3h-12.1v25.6q-0.1 4.5 0.3 8.9c0.2 0.9 0.7 1.7 1.5 2.2 0.9 0.5 1.9 0.8 3 0.8 2.4-0.2 4.8-0.7 7.1-1.6l1.4 13c-4.4 1.7-9.2 2.5-14 2.4-2.9 0.1-5.9-0.4-8.7-1.5-2.1-0.7-4.1-2.1-5.6-3.9-1.3-1.9-2.1-4.2-2.4-6.5-0.6-4-0.8-7.9-0.7-11.9v-27.5h-8.1v-13.3h8.1v-12.5l17.9-9.8v22.3zm61.2 43.1l17.7 2.8c-1.9 5.8-5.7 10.7-10.8 14-4.9 3.3-11 4.8-18.4 4.8-11.6 0-20.3-3.6-26-10.8-4.4-5.7-6.6-13-6.6-21.8 0-10.5 3-18.7 8.7-24.6 5.8-5.9 13.8-9.1 22.1-8.8 10 0 17.8 3 23.7 9.2 5.8 6.2 8.4 15.8 8.2 28.6h-44.5c0.2 5 1.5 8.9 4.3 11.6 2.7 2.7 6.4 4.2 10.2 4.1 2.5 0.1 5-0.6 7-2.1 2.2-1.8 3.7-4.2 4.4-7zm1-16.8c-0.1-4.9-1.5-8.6-4-11.1-2.4-2.5-5.7-3.9-9.2-3.8-3.6-0.1-7.1 1.4-9.6 4-2.6 3-4 6.9-3.7 10.9zm51.2 37h-17.7v-63.3h16.4v9c2.9-4.2 5.4-7.1 7.7-8.4 2.3-1.3 4.9-2 7.6-2 4.1 0 8.2 1.1 11.8 3.1l-5.5 14.6c-2.5-1.6-5.4-2.6-8.4-2.7-2.3 0-4.5 0.7-6.3 2-2.1 1.8-3.5 4.3-4.1 7-1 3.4-1.5 10.5-1.5 21.2zm41.7-63.2h16.6v9.3c2.2-3.3 5.2-5.9 8.7-7.8 3.7-2 7.9-3 12.1-2.9 7.6-0.1 14.9 3 19.9 8.6 5.5 5.8 8.1 13.8 8.1 24.1q0 15.9-8.2 24.6c-5 5.7-12.3 8.9-19.9 8.8-3.5 0-6.9-0.7-10.1-2.1-3.6-1.8-6.8-4.2-9.5-7.1v31.9h-17.7zm17.6 30.6q0 10.7 4.5 15.7c2.7 3.2 6.7 5.1 10.9 5.1 4 0.1 7.8-1.6 10.3-4.7 2.7-3.1 4.1-8.2 4.1-15.3 0-6.6-1.4-11.6-4.2-14.8-2.6-3.1-6.5-4.9-10.5-4.8-4.2-0.1-8.1 1.6-10.9 4.7q-4.2 4.8-4.2 14.1zm81.5 32.6h-17.8v-63.2h16.5v9c2.8-4.3 5.3-7.1 7.7-8.4 2.3-1.4 5-2.1 7.7-2 4 0 8 1.1 11.5 3.1l-5.4 14.6c-2.5-1.7-5.4-2.6-8.4-2.7-2.3-0.1-4.4 0.6-6.2 1.9-2.1 1.9-3.6 4.3-4.2 7.1-0.9 3.3-1.5 10.5-1.5 21.2zm59.3-63.3v63.3h-17.7v-63.3zm0-24v15.5h-17.7v-15.5zm15.8 69.3l17.8-2.6c0.6 2.9 2.2 5.5 4.5 7.4 3 1.8 6.3 2.7 9.8 2.6 4.6 0 8.1-0.9 10.3-2.4 1.5-1 2.4-2.8 2.4-4.6 0-1.1-0.5-2.3-1.3-3.1-0.9-0.8-2.8-1.6-5.9-2.2-14.4-2.9-23.5-5.7-27.3-8.2-5-2.9-8.1-8.4-7.9-14.2-0.1-5.5 2.5-10.6 6.9-13.8 4.6-3.7 11.7-5.6 21.3-5.6 9.1 0 16 1.4 20.5 4.2 4.5 2.9 7.8 7.4 9.2 12.6l-16.7 2.9c-0.6-2.3-2.1-4.4-4.2-5.7-2.5-1.4-5.5-2.1-8.4-2-4.8 0-8.1 0.7-10.2 1.9-1.1 0.7-1.9 2-1.9 3.4 0.1 1.3 0.7 2.4 1.8 3 1.6 1.1 7.2 2.7 16.5 4.8 9.4 2 16.2 4.4 19.9 7.4 3.7 3 5.8 7.6 5.5 12.5 0 5.7-2.5 10.7-7.7 14.9-5.1 4.2-12.7 6.2-22.8 6.2-9.2 0-16.3-1.8-21.7-5.2-5.1-3.2-8.8-8.3-10.4-14.2zm122.6-2.1l17.8 2.8c-2 5.7-5.8 10.6-10.9 14-4.9 3.2-11 4.7-18.4 4.7-11.6 0-20.4-3.5-25.9-10.8q-6.7-8.6-6.7-21.7c0-10.5 3-18.8 8.7-24.6 5.9-5.9 13.9-9.2 22.2-8.9q14.9 0 23.7 9.2c5.8 6.2 8.5 15.8 8.3 28.6h-44.6c0.1 5.1 1.5 8.9 4.3 11.6 2.6 2.8 6.4 4.3 10.2 4.2 2.5 0.1 4.9-0.6 6.9-2.1 2.2-1.8 3.8-4.3 4.4-7zm1-16.9c-0.1-4.9-1.4-8.6-3.9-11-5.2-5.2-13.7-5.1-18.8 0.1q-0.1 0-0.1 0c-2.6 3-4 6.9-3.7 10.9z"/>
		</g>
	</g>
</svg>